<?xml version="1.0" encoding="UTF-8"?>
<!-- Generator: Adobe Illustrator 19.0.0, SVG Export Plug-In . SVG Version: 6.00 Build 0)  -->
<svg xmlns="http://www.w3.org/2000/svg" xmlns:xlink="http://www.w3.org/1999/xlink" version="1.1" id="Layer_1" x="0px" y="0px" viewBox="576.6 -3.2 1732.3 636.1" xml:space="preserve">
<g>
	<g>
		<defs>
			<rect id="SVGID_1_" x="480" y="-260" width="1920" height="1080"></rect>
		</defs>
		<clipPath id="SVGID_2_">
			<use xlink:href="#SVGID_1_" overflow="visible"></use>
		</clipPath>
		<path clip-path="url(#SVGID_2_)" d="M841.2,158.9c0,48.6-14.5,85.8-44,112.1s-72.6,39.5-128.9,39.5h-79.9V7.3h79.9    c56.3,0,99.4,13.2,128.9,39.5C826.7,73.1,841.2,110.3,841.2,158.9 M669.2,23.6l-33.1-2.3v275.1l33.1-2.3    c80.4-6.4,120.3-51.3,120.3-135.3C789.5,74.5,749.5,29.5,669.2,23.6"></path>
	</g>
	<g>
		<defs>
			<rect id="SVGID_3_" x="480" y="-260" width="1920" height="1080"></rect>
		</defs>
		<clipPath id="SVGID_4_">
			<use xlink:href="#SVGID_3_" overflow="visible"></use>
		</clipPath>
		<path clip-path="url(#SVGID_4_)" fill="#DF0000" d="M2291.7,58.4c0,28.2-22.9,51.1-51.1,51.1s-51.1-22.9-51.1-51.1    s22.9-51.1,51.1-51.1C2268.8,7.3,2291.7,30.2,2291.7,58.4"></path>
	</g>
	<g>
		<defs>
			<rect id="SVGID_5_" x="480" y="-260" width="1920" height="1080"></rect>
		</defs>
		<clipPath id="SVGID_6_">
			<use xlink:href="#SVGID_5_" overflow="visible"></use>
		</clipPath>
		<path clip-path="url(#SVGID_6_)" d="M2156.7,310.7h-35.9c0-1.7,0-3.2,0-4.7c0-38.4,0.1-76.8-0.1-115.1c0-5.5-0.6-11-1.8-16.4    c-4-18.2-16.9-28.3-35.5-28.4c-13-0.1-24.6,4.4-35.4,11.3c-4.6,3-8.9,6.5-13.4,9.7c-2.1,1.5-2.7,3.3-2.7,5.9    c0.1,44.3,0.1,88.6,0.1,132.8c0,1.5,0,3.1,0,4.9h-35.7c-2.3-61.7,3-123.7-3.8-185.7h35.8c1.1,10.2,2.2,20.5,3.4,31.8    c1.5-1.6,2.3-2.6,3.2-3.6c13-14.6,27.9-26.2,47.5-30.3c14.3-3,28.6-2.5,42.4,2.9c17.6,6.9,26.8,20.7,30.3,38.8    c1.1,5.9,1.8,12,1.8,17.9c0.2,41.5,0.1,82.9,0.1,124.4C2156.9,308,2156.8,309.2,2156.7,310.7"></path>
	</g>
	<g>
		<defs>
			<rect id="SVGID_7_" x="480" y="-260" width="1920" height="1080"></rect>
		</defs>
		<clipPath id="SVGID_8_">
			<use xlink:href="#SVGID_7_" overflow="visible"></use>
		</clipPath>
		<path clip-path="url(#SVGID_8_)" d="M1343.2,161.8c0-8.3-0.1-16,0.1-23.7c0-1.2,1.2-2.8,2.2-3.4c15.3-7.8,31.4-12.4,48.6-13.3    c16-0.8,31.8-0.1,47.1,5.3c23.3,8.2,35.5,25.1,38.2,49.2c0.5,4.3,0.6,8.7,0.6,13.1c0.1,21.2,0.4,42.4-0.1,63.5    c-0.4,18.6,1.6,36.9,3.8,55.2c0.1,0.9,0.2,1.8,0.2,2.9H1448c-1-8.5-2-17.1-3-25.7c-0.5-0.4-1-0.8-1.6-1.2    c-0.7,1.3-1.2,2.9-2.2,3.9c-10.9,11.1-23.2,20.3-38.5,24.4c-13.3,3.6-26.7,3.4-39.8-1c-22.6-7.5-32.9-26.9-30.8-49.6    c1.5-16.5,9.9-29.1,23.5-38.4c14.4-9.8,30.7-14.8,47.6-17.5c12.1-2,24.4-2.9,36.7-4c3-0.3,4.3-0.9,4.2-4.2    c-0.5-9.8,0.2-19.9-1.4-29.5c-3.9-22.8-19.4-34.4-42.4-33.5c-15.8,0.6-29.2,7.1-41.8,15.9C1353.2,153.7,1348.5,157.6,1343.2,161.8     M1443.8,212c-18.7,1.9-36.5,5.1-52.6,13.9c-9,4.9-16.7,11.7-19.9,22c-4.4,14-3.6,27.5,7.3,38.3c10.1,10,22.9,10.5,35.9,6.3    c10.5-3.3,19.1-9.7,26.7-17.5c1.5-1.5,2.5-4.2,2.5-6.3c0.2-17.4,0.1-34.9,0.1-52.3V212z"></path>
	</g>
	<g>
		<defs>
			<rect id="SVGID_9_" x="480" y="-260" width="1920" height="1080"></rect>
		</defs>
		<clipPath id="SVGID_10_">
			<use xlink:href="#SVGID_9_" overflow="visible"></use>
		</clipPath>
		<path clip-path="url(#SVGID_10_)" d="M990.5,310.7c-1-8.7-2-17.2-3-26.3c-4.4,4-8.1,7.7-12,11.1c-13.1,11.3-28,18.5-45.6,19    c-15.4,0.4-30-2.3-41.7-13.4c-17.9-17-18.6-48.3-1.7-67.6c10.1-11.5,23.2-18,37.4-22.5c18.6-6,37.8-8.4,57.2-9.3    c5.4-0.3,5.5-0.2,5.4-5.6c-0.3-9.6,0.3-19.4-1.4-28.8c-4-22.3-19.4-33.8-42.1-33c-15.5,0.5-28.8,6.8-41.2,15.4    c-5.3,3.6-10.2,7.7-15.9,12.1c0-6.6,0.5-12.7-0.1-18.8c-0.6-5.7,1.6-8.4,6.7-10.6c30-13.1,60.8-15.5,91.9-5.4    c22.6,7.4,34.6,24.2,37.5,47.6c0.5,4.3,0.7,8.7,0.7,13.1c0.1,27.9-0.3,55.7,0.2,83.6c0.2,11.8,2.2,23.5,3.3,35.2    c0.1,1.4,0.3,2.7,0.4,4.2H990.5z M986.4,212.2c-18.2,1.3-37.5,5.4-52.5,13.6c-9.3,5.1-16.9,12.1-20.3,22.7    c-7.5,23.6,5.4,50.6,37,45.6c14.1-2.3,25.1-10.6,34.6-20.8c0.9-0.9,1.1-2.8,1.1-4.3c0.1-10,0-20,0-30    C986.4,230.2,986.4,221.4,986.4,212.2"></path>
	</g>
	<g>
		<defs>
			<rect id="SVGID_11_" x="480" y="-260" width="1920" height="1080"></rect>
		</defs>
		<clipPath id="SVGID_12_">
			<use xlink:href="#SVGID_11_" overflow="visible"></use>
		</clipPath>
		<path clip-path="url(#SVGID_12_)" d="M1796.2,161.8c0-8.5-0.1-16.3,0.1-24.1c0-1.2,1.7-2.7,3-3.3c13-6.7,26.8-11,41.4-12.4    c16.3-1.6,32.6-1.3,48.5,3.2c29.4,8.4,43.3,28.9,43.7,59c0.4,27.6-0.3,55.2,0.2,82.8c0.3,13.3,2.2,26.6,3.4,39.8    c0.1,1.3,0.3,2.5,0.5,4h-36c-1-8.6-1.9-17.1-2.9-25.6c-0.4-0.3-0.9-0.6-1.3-0.9c-1.2,1.6-2.2,3.3-3.6,4.7    c-11.3,11.2-23.9,20.2-39.7,23.9c-12.5,2.9-25,2.6-37.2-1.4c-21.6-7.1-33.4-25.8-31.4-48.5c1.5-16.8,9.5-29.8,23.2-39.3    c14.6-10.1,31.1-15.1,48.3-17.8c12.1-2,24.4-2.9,36.7-4c2.9-0.3,4-1,3.9-4.1c-0.5-10,0.3-20.2-1.4-29.9    c-4-22.7-19.5-34.2-42.6-33.3c-15.5,0.6-28.7,7-41.1,15.6C1806.7,153.4,1801.8,157.5,1796.2,161.8 M1896.7,211.9    c-3.3,0.4-6.4,0.8-9.4,1.2c-14.2,1.8-28,5.1-40.8,11.6c-10.2,5.2-18.8,12.2-22.3,23.7c-4.2,13.7-3.3,27,7.3,37.6    c10,10,22.6,10.6,35.5,6.6c10.8-3.3,19.6-9.9,27.4-17.8c1.4-1.4,2.4-4,2.4-6c0.2-17.6,0.1-35.1,0.1-52.7    C1896.9,214.8,1896.8,213.6,1896.7,211.9"></path>
	</g>
	<g>
		<defs>
			<rect id="SVGID_13_" x="480" y="-260" width="1920" height="1080"></rect>
		</defs>
		<clipPath id="SVGID_14_">
			<use xlink:href="#SVGID_13_" overflow="visible"></use>
		</clipPath>
		<rect x="2222.5" y="124.9" clip-path="url(#SVGID_14_)" width="35.6" height="185.8"></rect>
	</g>
	<g>
		<defs>
			<rect id="SVGID_15_" x="480" y="-260" width="1920" height="1080"></rect>
		</defs>
		<clipPath id="SVGID_16_">
			<use xlink:href="#SVGID_15_" overflow="visible"></use>
		</clipPath>
		<path clip-path="url(#SVGID_16_)" d="M1219.3,282.7v7.4c-0.4,0.3-0.7,0.6-1,0.8c-30.3,24.3-64,29.6-100.2,16.2    c-22.7-8.4-36.5-25.8-43.9-48.5c-3.9-12-5.8-24.5-6.1-37.1c0-1.4,0-2.8,0-4c8-1.2,15.6-2.1,23.1-3.7c8.4-1.7,16.2-4.9,22.9-10.4    c15.2-12.5,17.5-28.9,13.4-46.8c-4-17.4-17.8-29.3-35.5-31.2v-0.6h39.4c0.1,0,0.1,0,0.2,0.1c0.3,0.1,0.5,0.2,0.8,0.3l0,0l0,0    c0,0,0,0,0.1,0l0,0l0,0l0,0l0,0c0,0,0,0,0.1,0l0,0c2.9,1.2,5.8,2.4,8.6,3.8c37.6,18,36.2,63.7,9.4,83c-8.2,5.9-17.2,9.6-26.9,11.8    c-4.7,1.1-9.5,1.7-14.5,2.6c0.3,3.6,0.5,6.9,0.9,10.2c3.3,24.9,15.6,43.1,40.2,50.8c8.1,2.5,16.8,3.5,25.3,4    c14.2,0.8,28.1-1.6,41.3-7.4C1217.9,283.7,1218.7,283.2,1219.3,282.7"></path>
	</g>
	<g>
		<defs>
			<rect id="SVGID_17_" x="480" y="-260" width="1920" height="1080"></rect>
		</defs>
		<clipPath id="SVGID_18_">
			<use xlink:href="#SVGID_17_" overflow="visible"></use>
		</clipPath>
		<path clip-path="url(#SVGID_18_)" d="M1217.7,285.7c0.9-2.1,1.6-3.6,2.1-5c18.2-50.1,36.4-100.3,54.4-150.5    c1.4-3.9,3.1-5.5,7.4-5.2c7.1,0.4,14.3,0.1,22,0.1c-0.9,2.2-1.5,3.9-2.2,5.5c-24.6,55.9-49.3,111.6-73.6,167.6    c-5.5,12.8-48.2,95.4-64.3,127.7c-0.7,0.9-1.2,2-1.8,3h-44.2c-0.5-0.7-1-1.5-1.7-2.6c2.2-1.4,4.3-2.8,6.5-4.1    C1162.1,404.1,1217.7,285.7,1217.7,285.7"></path>
	</g>
	<g>
		<defs>
			<rect id="SVGID_19_" x="480" y="-260" width="1920" height="1080"></rect>
		</defs>
		<clipPath id="SVGID_20_">
			<use xlink:href="#SVGID_19_" overflow="visible"></use>
		</clipPath>
		<path clip-path="url(#SVGID_20_)" d="M1757.3,305.1c-13,13.9-26.6,13.2-46.1,2.4c-13.6-7.5-27.8-21.8-37.7-33.8    c-24.3-29.6-54.6-61.5-77.7-92.2c-3.6-4.8-7.1-9.7-11.7-16.1c10-2.3,12.3-2.6,20-4.8c49-13.8,73.6-52.2,63.3-95.9    c-6.1-25.9-30-42.4-60.7-44.2c-8.7-0.5-14.8-0.9-19.1-0.4v290.4h-47.7V7.4h22c8.6,0.1,17.1,0.2,25.7,0.3    c10.8,0.1,21.6,0.2,32.4,0.4c20.5,2.2,23.3,2,43.7,11.2c25.1,11.3,41.7,32.1,44.1,60.4c2.5,29.4-9.5,49.5-32.8,68.5    c-13.4,10.9-21.2,15-36,24.8C1677.1,215.7,1708.2,270.2,1757.3,305.1"></path>
	</g>
</g>
<g>
	<path d="M625.8,483.3c0,6.5-5.1,11.6-11.6,11.6c-6.3,0-11.4-5.1-11.4-11.6s5.1-11.6,11.4-11.6C620.6,471.7,625.8,476.8,625.8,483.3   z M604.5,617.8v-99.3h19.3v99.3H604.5z"></path>
	<path d="M663.8,593.8v-67.5h-17.5V521l17.5-1v-24.8l19.3-3.2v26.8l28.4-1.8v9.3h-28.4V592c0,11.2,5.3,16.7,16,16.7   c4.5,0,9.8-1.4,16-3.9v4.3c-8.1,6.9-17.1,10.2-27.2,10.2C671.8,619.4,663.8,610.9,663.8,593.8z"></path>
	<path d="M726.6,522.3l8.3-35.3l-1.2-14.2h19.1c1.2,3,1.8,6.3,1.8,10.2c0,1-0.2,2.4-0.4,4.1l-21.9,35.1h-5.7V522.3z"></path>
	<path d="M755.9,612.5v-14.2c11.8,9.6,22.8,14.4,33.1,14.4c13.2,0,21.9-6.3,21.9-15.2c0-4.5-1.8-8.3-5.5-11.4   c-3.7-3.2-11-6.7-21.5-10.6c-18.5-7.1-27.8-17.1-27.8-30.3c0-8.1,3.3-15,9.8-20.5c6.5-5.3,14.8-8.1,24.6-8.1   c10.2,0,19.9,2.2,28.9,6.3V537c-10.4-8.9-20.1-13.4-28.9-13.4c-10.2,0-17.9,6.3-17.9,14.4c0,4.9,1.8,8.9,5.1,11.8   c3.3,3,10.6,6.7,21.5,10.8c19.1,7.3,27.2,16,27.2,29.3c0,8.7-3.5,15.8-10.4,21.3c-7.1,5.7-16.1,8.5-27.2,8.5   C777.2,619.8,766.4,617.4,755.9,612.5z"></path>
	<path d="M980.4,605.6c-8.9,9.5-20.3,14.2-34.7,14.2s-26-4.7-34.7-14.2c-8.9-9.5-13.2-21.9-13.2-37.4c0-15.6,4.3-28.2,13.2-37.6   c8.7-9.3,20.3-14,34.7-14s25.8,4.7,34.7,14c8.7,9.5,13,22.1,13,37.6C993.4,583.7,989.1,596.1,980.4,605.6z M945.8,523.6   c-16.7,0-27,16.7-27,44.5s10.2,44.5,27,44.5c16.5,0,26.8-16.9,26.8-44.5C972.5,540.4,962.3,523.6,945.8,523.6z"></path>
	<path d="M1016.6,617.8V474l19.3-3v90.6l19.3-4.5l29.7-38.6h15.2l-35.3,37.2l39,62h-22.3l-31.1-50.4l-14.6-0.8v51.2L1016.6,617.8   L1016.6,617.8z"></path>
	<path d="M1179.3,617.8V538l-2-19.5h19.3l1.8,17.1c10.4-12.8,22.1-19.1,35.3-19.1c20.7,0,31.5,11.6,31.5,33.7v67.5h-19.3v-64.2   c0-15-7.5-23.6-19.9-23.6c-8.5,0-17.5,4.1-27.4,12.4v75.4L1179.3,617.8L1179.3,617.8z"></path>
	<path d="M1371.3,605.6c-8.9,9.5-20.3,14.2-34.7,14.2s-26-4.7-34.7-14.2c-8.9-9.5-13.2-21.9-13.2-37.4c0-15.6,4.3-28.2,13.2-37.6   c8.7-9.3,20.3-14,34.7-14s25.8,4.7,34.7,14c8.7,9.5,13,22.1,13,37.6C1384.3,583.7,1380,596.1,1371.3,605.6z M1336.6,523.6   c-16.7,0-27,16.7-27,44.5s10.2,44.5,27,44.5c16.5,0,26.8-16.9,26.8-44.5C1363.4,540.4,1353.2,523.6,1336.6,523.6z"></path>
	<path d="M1416.2,593.8v-67.5h-17.5V521l17.5-1v-24.8l19.3-3.2v26.8l28.4-1.8v9.3h-28.4V592c0,11.2,5.3,16.7,16,16.7   c4.5,0,9.8-1.4,16-3.9v4.3c-8.1,6.9-17.1,10.2-27.2,10.2C1424.3,619.4,1416.2,610.9,1416.2,593.8z"></path>
	<path d="M1551.9,593.8v-67.5h-17.5V521l17.5-1v-24.8l19.3-3.2v26.8l28.4-1.8v9.3h-28.4V592c0,11.2,5.3,16.7,16,16.7   c4.5,0,9.8-1.4,16-3.9v4.3c-8.1,6.9-17.1,10.2-27.2,10.2C1559.9,619.4,1551.9,610.9,1551.9,593.8z"></path>
	<path d="M1699.2,605.6c-8.9,9.5-20.3,14.2-34.7,14.2s-26-4.7-34.7-14.2c-8.9-9.5-13.2-21.9-13.2-37.4c0-15.6,4.3-28.2,13.2-37.6   c8.7-9.3,20.3-14,34.7-14s25.8,4.7,34.7,14c8.7,9.5,13,22.1,13,37.6C1712.2,583.7,1707.8,596.1,1699.2,605.6z M1664.5,523.6   c-16.7,0-27,16.7-27,44.5s10.2,44.5,27,44.5c16.5,0,26.8-16.9,26.8-44.5C1691.3,540.4,1681.1,523.6,1664.5,523.6z"></path>
	<path d="M1790.1,614.4V474l19.3-3v62.8c7.7-11.6,17.9-17.3,30.5-17.3c24.6,0,39.4,18.1,39.4,47.5c0,34.5-19.7,55.7-52.2,55.7   C1815,619.8,1802.6,618,1790.1,614.4z M1831.7,530c-8.1,0-15.4,3.5-22.3,10.8v67.4c4.9,3,11,4.5,18.3,4.5   c19.5,0,31.5-17.5,31.5-45.9C1859.3,543.9,1849,530,1831.7,530z"></path>
	<path d="M1911.1,605c-8.9-9.6-13.4-22.1-13.4-37.2c0-14.8,4.3-27,13-36.6s19.5-14.6,32.5-14.6c24.6,0,39.8,16.9,39.8,44.3v6.1   h-64.8c0.8,26.2,14.8,41.4,37.4,41.4c8.9,0,17.1-2,24.8-5.7v4.1c-8.5,7.9-22.1,13-35.4,13C1931.3,619.8,1919.9,614.8,1911.1,605z    M1918.1,561.1l45.9-2.8c0-22.3-7.7-34.7-21.1-34.7C1929.4,523.6,1919.5,538.4,1918.1,561.1z"></path>
	<path d="M2136.7,605.6c-8.9,9.5-20.3,14.2-34.7,14.2s-26-4.7-34.7-14.2c-8.9-9.5-13.2-21.9-13.2-37.4c0-15.6,4.3-28.2,13.2-37.6   c8.7-9.3,20.3-14,34.7-14s25.8,4.7,34.7,14c8.7,9.5,13,22.1,13,37.6C2149.7,583.7,2145.4,596.1,2136.7,605.6z M2102.1,523.6   c-16.7,0-27,16.7-27,44.5s10.2,44.5,27,44.5c16.5,0,26.8-16.9,26.8-44.5C2128.9,540.4,2118.6,523.6,2102.1,523.6z"></path>
	<path d="M2173,617.8V474l19.3-3v90.6l19.3-4.5l29.7-38.6h15.2l-35.3,37.2l39,62h-22.3l-31.1-50.4l-14.6-0.8v51.2L2173,617.8   L2173,617.8z"></path>
</g>
</svg>
